<mxfile host="app.diagrams.net" agent="Mozilla/5.0 (X11; Linux x86_64) AppleWebKit/537.36 (KHTML, like Gecko) Chrome/128.0.0.0 Safari/537.36" version="26.0.16" pages="3">
  <diagram id="tpfn5hpn_HDT-wqOFqeq" name="Param Assets">
    <mxGraphModel dx="1106" dy="531" grid="1" gridSize="5" guides="1" tooltips="1" connect="1" arrows="1" fold="1" page="1" pageScale="1" pageWidth="1100" pageHeight="850" background="none" math="0" shadow="1">
      <root>
        <mxCell id="0" />
        <mxCell id="1" parent="0" />
        <mxCell id="P9DPgZVxVX7I3ZQqdMut-1" value="&lt;font&gt;مدیریت عقود&lt;/font&gt;" style="shape=ext;rounded=1;html=1;whiteSpace=wrap;shadow=1;glass=0;labelBackgroundColor=none;fillColor=#dae8fc;strokeColor=#6c8ebf;fontStyle=1;fontFamily=Roboto;fontSize=14;spacingTop=1;verticalAlign=middle;double=1;fontSource=https%3A%2F%2Ffonts.googleapis.com%2Fcss%3Ffamily%3DRoboto;gradientColor=#7ea6e0;" parent="1" vertex="1">
          <mxGeometry x="145" y="200" width="150" height="100" as="geometry" />
        </mxCell>
        <mxCell id="47RzwFUNub2ARMBaULxg-1" value="مدیریت بخش ها و زیر بخش های اقتصادی" style="shape=ext;rounded=1;html=1;whiteSpace=wrap;shadow=1;glass=0;labelBackgroundColor=none;fillColor=#dae8fc;strokeColor=#6c8ebf;fontStyle=1;fontFamily=Roboto;fontSize=14;double=1;fontSource=https%3A%2F%2Ffonts.googleapis.com%2Fcss%3Ffamily%3DRoboto;gradientColor=#7ea6e0;" parent="1" vertex="1">
          <mxGeometry x="145" y="315" width="150" height="100" as="geometry" />
        </mxCell>
        <mxCell id="P9DPgZVxVX7I3ZQqdMut-4" value="مدیریت بیمه" style="shape=ext;rounded=1;shadow=1;glass=0;labelBackgroundColor=none;fillColor=#dae8fc;strokeColor=#6c8ebf;fontStyle=1;fontFamily=Roboto;fontSize=14;double=1;labelBorderColor=none;textShadow=0;whiteSpace=wrap;html=1;fontSource=https%3A%2F%2Ffonts.googleapis.com%2Fcss%3Ffamily%3DRoboto;gradientColor=#7ea6e0;" parent="1" vertex="1">
          <mxGeometry x="781" y="200" width="150" height="100" as="geometry" />
        </mxCell>
        <mxCell id="P9DPgZVxVX7I3ZQqdMut-6" value="مدیریت استعلام" style="shape=ext;rounded=1;html=1;whiteSpace=wrap;shadow=1;glass=0;labelBackgroundColor=none;fillColor=#dae8fc;strokeColor=#6c8ebf;fontStyle=1;fontFamily=Roboto;fontSize=14;double=1;fontSource=https%3A%2F%2Ffonts.googleapis.com%2Fcss%3Ffamily%3DRoboto;gradientColor=#7ea6e0;" parent="1" vertex="1">
          <mxGeometry x="781" y="315" width="150" height="100" as="geometry" />
        </mxCell>
        <mxCell id="P9DPgZVxVX7I3ZQqdMut-7" value="مدیریت تسهیلات، تعهدات و مطالبات" style="shape=ext;rounded=1;html=1;whiteSpace=wrap;shadow=1;glass=0;labelBackgroundColor=none;fillColor=#dae8fc;strokeColor=#6c8ebf;fontStyle=1;fontFamily=Roboto;fontSize=14;double=1;fontSource=https%3A%2F%2Ffonts.googleapis.com%2Fcss%3Ffamily%3DRoboto;gradientColor=#7ea6e0;" parent="1" vertex="1">
          <mxGeometry x="301" y="200" width="150" height="100" as="geometry" />
        </mxCell>
        <mxCell id="P9DPgZVxVX7I3ZQqdMut-8" value="مدیریت وثایق" style="shape=ext;rounded=1;html=1;whiteSpace=wrap;shadow=1;glass=0;labelBackgroundColor=none;fillColor=#dae8fc;strokeColor=#6c8ebf;fontStyle=1;fontFamily=Roboto;fontSize=14;double=1;fontSource=https%3A%2F%2Ffonts.googleapis.com%2Fcss%3Ffamily%3DRoboto;gradientColor=#7ea6e0;" parent="1" vertex="1">
          <mxGeometry x="621" y="200" width="150" height="100" as="geometry" />
        </mxCell>
        <mxCell id="P9DPgZVxVX7I3ZQqdMut-9" value="مدیریت سود/کارمزد/جریمه/هزینه های قانونی" style="shape=ext;rounded=1;html=1;whiteSpace=wrap;shadow=1;glass=0;labelBackgroundColor=none;fillColor=#dae8fc;strokeColor=#6c8ebf;fontStyle=1;fontFamily=Roboto;fontSize=14;double=1;fontSource=https%3A%2F%2Ffonts.googleapis.com%2Fcss%3Ffamily%3DRoboto;gradientColor=#7ea6e0;" parent="1" vertex="1">
          <mxGeometry x="301" y="430" width="150" height="100" as="geometry" />
        </mxCell>
        <mxCell id="qHezKH5iI0OJUQdXsAGK-1" value="مدیریت درخواست‌ها" style="shape=ext;rounded=1;html=1;whiteSpace=wrap;shadow=1;glass=0;labelBackgroundColor=none;fillColor=#dae8fc;strokeColor=#6c8ebf;fontStyle=1;fontFamily=Roboto;fontSize=14;double=1;fontSource=https%3A%2F%2Ffonts.googleapis.com%2Fcss%3Ffamily%3DRoboto;gradientColor=#7ea6e0;" parent="1" vertex="1">
          <mxGeometry x="461" y="200" width="150" height="100" as="geometry" />
        </mxCell>
        <mxCell id="qHezKH5iI0OJUQdXsAGK-3" value="مدیریت اسناد و&amp;nbsp;مستندات" style="shape=ext;rounded=1;html=1;whiteSpace=wrap;shadow=1;glass=0;labelBackgroundColor=none;fillColor=#dae8fc;strokeColor=#6c8ebf;fontStyle=1;fontFamily=Roboto;fontSize=14;double=1;fontSource=https%3A%2F%2Ffonts.googleapis.com%2Fcss%3Ffamily%3DRoboto;gradientColor=#7ea6e0;" parent="1" vertex="1">
          <mxGeometry x="301" y="315" width="150" height="100" as="geometry" />
        </mxCell>
        <mxCell id="qHezKH5iI0OJUQdXsAGK-6" value="مدیریت مشتریان" style="shape=ext;rounded=1;html=1;whiteSpace=wrap;shadow=1;glass=0;labelBackgroundColor=none;fillColor=#dae8fc;strokeColor=#6c8ebf;fontStyle=1;fontFamily=Roboto;fontSize=14;double=1;fontSource=https%3A%2F%2Ffonts.googleapis.com%2Fcss%3Ffamily%3DRoboto;gradientColor=#7ea6e0;" parent="1" vertex="1">
          <mxGeometry x="461" y="315" width="150" height="100" as="geometry" />
        </mxCell>
        <mxCell id="qHezKH5iI0OJUQdXsAGK-7" value="مدیریت تصمیم گیری" style="shape=ext;rounded=1;html=1;whiteSpace=wrap;shadow=1;glass=0;labelBackgroundColor=none;fillColor=#dae8fc;strokeColor=#6c8ebf;fontStyle=1;fontFamily=Roboto;fontSize=14;gradientColor=#7ea6e0;double=1;fontSource=https%3A%2F%2Ffonts.googleapis.com%2Fcss%3Ffamily%3DRoboto;" parent="1" vertex="1">
          <mxGeometry x="621" y="315" width="150" height="100" as="geometry" />
        </mxCell>
        <mxCell id="qHezKH5iI0OJUQdXsAGK-8" value="مدیریت&amp;nbsp;سیستم" style="shape=ext;rounded=1;html=1;whiteSpace=wrap;shadow=1;glass=0;labelBackgroundColor=none;fillColor=#dae8fc;strokeColor=#6c8ebf;fontStyle=1;fontFamily=Roboto;fontSize=14;double=1;gradientColor=#7ea6e0;fontSource=https%3A%2F%2Ffonts.googleapis.com%2Fcss%3Ffamily%3DRoboto;" parent="1" vertex="1">
          <mxGeometry x="781" y="545" width="150" height="100" as="geometry" />
        </mxCell>
        <mxCell id="qHezKH5iI0OJUQdXsAGK-9" value="مدیریت واحدهای بانک" style="shape=ext;rounded=1;html=1;whiteSpace=wrap;shadow=1;glass=0;labelBackgroundColor=none;fillColor=#dae8fc;strokeColor=#6c8ebf;fontStyle=1;fontFamily=Roboto;fontSize=14;double=1;fontSource=https%3A%2F%2Ffonts.googleapis.com%2Fcss%3Ffamily%3DRoboto;gradientColor=#7ea6e0;" parent="1" vertex="1">
          <mxGeometry x="145" y="545" width="150" height="100" as="geometry" />
        </mxCell>
        <mxCell id="qHezKH5iI0OJUQdXsAGK-10" value="مدیریت مناطق جغرافیایی" style="shape=ext;rounded=1;html=1;whiteSpace=wrap;shadow=1;glass=0;labelBackgroundColor=none;fillColor=#dae8fc;strokeColor=#6c8ebf;fontStyle=1;fontFamily=Roboto;fontSize=14;gradientColor=#7ea6e0;double=1;fontSource=https%3A%2F%2Ffonts.googleapis.com%2Fcss%3Ffamily%3DRoboto;" parent="1" vertex="1">
          <mxGeometry x="301" y="545" width="150" height="100" as="geometry" />
        </mxCell>
        <mxCell id="qHezKH5iI0OJUQdXsAGK-11" value="مدیریت منابع و مصارف" style="shape=ext;rounded=1;html=1;whiteSpace=wrap;shadow=1;glass=0;labelBackgroundColor=none;fillColor=#dae8fc;strokeColor=#6c8ebf;fontStyle=1;fontFamily=Roboto;fontSize=14;double=1;fontSource=https%3A%2F%2Ffonts.googleapis.com%2Fcss%3Ffamily%3DRoboto;gradientColor=#7ea6e0;" parent="1" vertex="1">
          <mxGeometry x="145" y="430" width="150" height="100" as="geometry" />
        </mxCell>
        <mxCell id="qHezKH5iI0OJUQdXsAGK-12" value="مدیریت کاربران" style="shape=ext;rounded=1;html=1;whiteSpace=wrap;shadow=1;glass=0;labelBackgroundColor=none;fillColor=#dae8fc;strokeColor=#6c8ebf;fontStyle=1;fontFamily=Roboto;fontSize=14;gradientColor=#7ea6e0;double=1;fontSource=https%3A%2F%2Ffonts.googleapis.com%2Fcss%3Ffamily%3DRoboto;" parent="1" vertex="1">
          <mxGeometry x="461" y="545" width="150" height="100" as="geometry" />
        </mxCell>
        <mxCell id="qHezKH5iI0OJUQdXsAGK-13" value="مدیریت&amp;nbsp;گزارشات" style="shape=ext;rounded=1;html=1;whiteSpace=wrap;shadow=1;glass=0;labelBackgroundColor=none;fillColor=#dae8fc;strokeColor=#6c8ebf;fontStyle=1;fontFamily=Roboto;fontSize=14;double=1;fontSource=https%3A%2F%2Ffonts.googleapis.com%2Fcss%3Ffamily%3DRoboto;gradientColor=#7ea6e0;" parent="1" vertex="1">
          <mxGeometry x="621" y="545" width="150" height="100" as="geometry" />
        </mxCell>
        <mxCell id="qHezKH5iI0OJUQdXsAGK-14" value="مدیریت ارتباطات و اطلاع‌رسانی" style="shape=ext;rounded=1;html=1;whiteSpace=wrap;shadow=1;glass=0;labelBackgroundColor=none;fillColor=#dae8fc;strokeColor=#6c8ebf;fontStyle=1;fontFamily=Roboto;fontSize=14;double=1;fontSource=https%3A%2F%2Ffonts.googleapis.com%2Fcss%3Ffamily%3DRoboto;gradientColor=#7ea6e0;" parent="1" vertex="1">
          <mxGeometry x="461" y="430" width="150" height="100" as="geometry" />
        </mxCell>
      </root>
    </mxGraphModel>
  </diagram>
  <diagram id="eu9sZg7NGlNqMMj42PEs" name="Facility Assets">
    <mxGraphModel dx="940" dy="451" grid="1" gridSize="5" guides="1" tooltips="1" connect="1" arrows="1" fold="1" page="1" pageScale="1" pageWidth="1169" pageHeight="827" math="0" shadow="0">
      <root>
        <mxCell id="0" />
        <mxCell id="1" parent="0" />
        <mxCell id="aIjb7VUai6m95m3xVqtO-1" value="ماژول بیمه" style="shape=ext;rounded=1;shadow=1;glass=0;labelBackgroundColor=none;fillColor=#d5e8d4;strokeColor=#82b366;fontStyle=1;fontFamily=Roboto;fontSize=12;double=1;labelBorderColor=none;textShadow=0;whiteSpace=wrap;html=1;fontSource=https://fonts.googleapis.com/css?family=Roboto;gradientColor=#97d077;" vertex="1" parent="1">
          <mxGeometry x="475" y="365" width="130" height="90" as="geometry" />
        </mxCell>
        <mxCell id="aIjb7VUai6m95m3xVqtO-3" value="ماژول وثایق" style="shape=ext;rounded=1;html=1;whiteSpace=wrap;shadow=1;glass=0;labelBackgroundColor=none;fillColor=#d5e8d4;strokeColor=#82b366;fontStyle=1;fontFamily=Roboto;fontSize=12;double=1;fontSource=https://fonts.googleapis.com/css?family=Roboto;gradientColor=#97d077;" vertex="1" parent="1">
          <mxGeometry x="475" y="265" width="130" height="90" as="geometry" />
        </mxCell>
        <mxCell id="aIjb7VUai6m95m3xVqtO-4" value="ماژول سود/کارمزد/جریمه/هزینه های قانونی" style="shape=ext;rounded=1;html=1;whiteSpace=wrap;shadow=1;glass=0;labelBackgroundColor=none;fillColor=#d5e8d4;strokeColor=#82b366;fontStyle=1;fontFamily=Roboto;fontSize=12;double=1;fontSource=https://fonts.googleapis.com/css?family=Roboto;gradientColor=#97d077;" vertex="1" parent="1">
          <mxGeometry x="760" y="165" width="130" height="90" as="geometry" />
        </mxCell>
        <mxCell id="aIjb7VUai6m95m3xVqtO-6" value="ماژول&lt;span style=&quot;background-color: transparent; color: light-dark(rgb(0, 0, 0), rgb(255, 255, 255));&quot;&gt;&amp;nbsp;تصمیم گیری&lt;/span&gt;" style="shape=ext;rounded=1;html=1;whiteSpace=wrap;shadow=1;glass=0;labelBackgroundColor=none;fillColor=#d5e8d4;strokeColor=#82b366;fontStyle=1;fontFamily=Roboto;fontSize=12;gradientColor=#97d077;double=1;fontSource=https://fonts.googleapis.com/css?family=Roboto;" vertex="1" parent="1">
          <mxGeometry x="475" y="165" width="130" height="90" as="geometry" />
        </mxCell>
        <mxCell id="aIjb7VUai6m95m3xVqtO-9" value="ماژول&amp;nbsp;ضامنین" style="shape=ext;rounded=1;html=1;whiteSpace=wrap;shadow=1;glass=0;labelBackgroundColor=none;fillColor=#d5e8d4;strokeColor=#82b366;fontStyle=1;fontFamily=Roboto;fontSize=12;double=1;fontSource=https://fonts.googleapis.com/css?family=Roboto;gradientColor=#97d077;" vertex="1" parent="1">
          <mxGeometry x="475" y="565" width="130" height="90" as="geometry" />
        </mxCell>
        <mxCell id="aIjb7VUai6m95m3xVqtO-10" value="ماژول&amp;nbsp;حد و سقف" style="shape=ext;rounded=1;html=1;whiteSpace=wrap;shadow=1;glass=0;labelBackgroundColor=none;fillColor=#d5e8d4;strokeColor=#82b366;fontStyle=1;fontFamily=Roboto;fontSize=12;double=1;fontSource=https://fonts.googleapis.com/css?family=Roboto;gradientColor=#97d077;" vertex="1" parent="1">
          <mxGeometry x="620" y="465" width="130" height="90" as="geometry" />
        </mxCell>
        <mxCell id="aIjb7VUai6m95m3xVqtO-11" value="ماژول&amp;nbsp;تمدید و متمم" style="shape=ext;rounded=1;html=1;whiteSpace=wrap;shadow=1;glass=0;labelBackgroundColor=none;fillColor=#d5e8d4;strokeColor=#82b366;fontStyle=1;fontFamily=Roboto;fontSize=12;double=1;fontSource=https://fonts.googleapis.com/css?family=Roboto;gradientColor=#97d077;" vertex="1" parent="1">
          <mxGeometry x="620" y="565" width="130" height="90" as="geometry" />
        </mxCell>
        <mxCell id="aIjb7VUai6m95m3xVqtO-12" value="ماژول&amp;nbsp;پیگیری مطالبات" style="shape=ext;rounded=1;html=1;whiteSpace=wrap;shadow=1;glass=0;labelBackgroundColor=none;fillColor=#d5e8d4;strokeColor=#82b366;fontStyle=1;fontFamily=Roboto;fontSize=12;double=1;fontSource=https://fonts.googleapis.com/css?family=Roboto;gradientColor=#97d077;" vertex="1" parent="1">
          <mxGeometry x="620" y="365" width="130" height="90" as="geometry" />
        </mxCell>
        <mxCell id="aIjb7VUai6m95m3xVqtO-13" value="ماژول استعلامات" style="shape=ext;rounded=1;html=1;whiteSpace=wrap;shadow=1;glass=0;labelBackgroundColor=none;fillColor=#d5e8d4;strokeColor=#82b366;fontStyle=1;fontFamily=Roboto;fontSize=12;double=1;fontSource=https://fonts.googleapis.com/css?family=Roboto;gradientColor=#97d077;" vertex="1" parent="1">
          <mxGeometry x="475" y="465" width="130" height="90" as="geometry" />
        </mxCell>
        <mxCell id="aIjb7VUai6m95m3xVqtO-14" value="ماژول اسناد و&amp;nbsp;مستندات" style="shape=ext;rounded=1;html=1;whiteSpace=wrap;shadow=1;glass=0;labelBackgroundColor=none;fillColor=#d5e8d4;strokeColor=#82b366;fontStyle=1;fontFamily=Roboto;fontSize=12;double=1;fontSource=https://fonts.googleapis.com/css?family=Roboto;gradientColor=#97d077;" vertex="1" parent="1">
          <mxGeometry x="620" y="265" width="130" height="90" as="geometry" />
        </mxCell>
        <mxCell id="aIjb7VUai6m95m3xVqtO-15" value="ماژول ارتباطات و اطلاع‌رسانی" style="shape=ext;rounded=1;html=1;whiteSpace=wrap;shadow=1;glass=0;labelBackgroundColor=none;fillColor=#d5e8d4;strokeColor=#82b366;fontStyle=1;fontFamily=Roboto;fontSize=12;double=1;fontSource=https://fonts.googleapis.com/css?family=Roboto;gradientColor=#97d077;" vertex="1" parent="1">
          <mxGeometry x="760" y="265" width="130" height="90" as="geometry" />
        </mxCell>
        <mxCell id="aIjb7VUai6m95m3xVqtO-16" value="ماژول گزارش‌گیری و تحلیل داده‌ها" style="shape=ext;rounded=1;html=1;whiteSpace=wrap;shadow=1;glass=0;labelBackgroundColor=none;fillColor=#d5e8d4;strokeColor=#82b366;fontStyle=1;fontFamily=Roboto;fontSize=12;double=1;fontSource=https://fonts.googleapis.com/css?family=Roboto;gradientColor=#97d077;" vertex="1" parent="1">
          <mxGeometry x="760" y="365" width="130" height="90" as="geometry" />
        </mxCell>
        <mxCell id="aIjb7VUai6m95m3xVqtO-19" value="ماژول اعتبارسنجی و بررسی ریسک" style="shape=ext;rounded=1;html=1;whiteSpace=wrap;shadow=1;glass=0;labelBackgroundColor=none;fillColor=#d5e8d4;strokeColor=#82b366;fontStyle=1;fontFamily=Roboto;fontSize=12;double=1;fontSource=https://fonts.googleapis.com/css?family=Roboto;gradientColor=#97d077;" vertex="1" parent="1">
          <mxGeometry x="620" y="165" width="130" height="90" as="geometry" />
        </mxCell>
        <mxCell id="8mzccRnA_rq-y_F9DoEi-1" value="بسته درخواست" style="shape=ext;rounded=1;html=1;whiteSpace=wrap;shadow=0;glass=0;labelBackgroundColor=none;fillColor=#fff2cc;strokeColor=#d6b656;fontStyle=1;fontSize=14;gradientColor=#ffd966;" vertex="1" parent="1">
          <mxGeometry x="275" y="165" width="130" height="90" as="geometry" />
        </mxCell>
        <mxCell id="8mzccRnA_rq-y_F9DoEi-2" value="بسته پیشنهاد" style="shape=ext;rounded=1;html=1;whiteSpace=wrap;labelBackgroundColor=none;fillColor=#fff2cc;strokeColor=#d6b656;fontStyle=1;fontSize=14;gradientColor=#ffd966;" vertex="1" parent="1">
          <mxGeometry x="275" y="265" width="130" height="90" as="geometry" />
        </mxCell>
        <mxCell id="8mzccRnA_rq-y_F9DoEi-3" value="بسته مصوبه" style="shape=ext;rounded=1;html=1;whiteSpace=wrap;labelBackgroundColor=none;fillColor=#fff2cc;strokeColor=#d6b656;fontStyle=1;fontSize=14;gradientColor=#ffd966;" vertex="1" parent="1">
          <mxGeometry x="275" y="365" width="130" height="90" as="geometry" />
        </mxCell>
        <mxCell id="8mzccRnA_rq-y_F9DoEi-4" value="بسته قرارداد" style="html=1;whiteSpace=wrap;rounded=1;labelBackgroundColor=none;fillColor=#fff2cc;strokeColor=#d6b656;fontStyle=1;fontSize=14;gradientColor=#ffd966;" vertex="1" parent="1">
          <mxGeometry x="275" y="465" width="130" height="90" as="geometry" />
        </mxCell>
        <mxCell id="8mzccRnA_rq-y_F9DoEi-5" value="بسته بازپرداخت" style="shape=ext;rounded=1;html=1;whiteSpace=wrap;labelBackgroundColor=none;fillColor=#fff2cc;strokeColor=#d6b656;fontStyle=1;fontSize=14;gradientColor=#ffd966;" vertex="1" parent="1">
          <mxGeometry x="275" y="565" width="130" height="90" as="geometry" />
        </mxCell>
        <mxCell id="8mzccRnA_rq-y_F9DoEi-6" value="بسته&amp;nbsp;&lt;span style=&quot;background-color: transparent; color: light-dark(rgb(0, 0, 0), rgb(255, 255, 255));&quot;&gt;تسویه&lt;/span&gt;" style="shape=ext;rounded=1;html=1;whiteSpace=wrap;labelBackgroundColor=none;fillColor=#fff2cc;strokeColor=#d6b656;fontStyle=1;fontSize=14;gradientColor=#ffd966;" vertex="1" parent="1">
          <mxGeometry x="275" y="665" width="130" height="90" as="geometry" />
        </mxCell>
      </root>
    </mxGraphModel>
  </diagram>
  <diagram id="if2TyVv7pk0O8hq8qVsM" name="Delivery">
    <mxGraphModel dx="940" dy="451" grid="1" gridSize="10" guides="1" tooltips="1" connect="1" arrows="1" fold="1" page="1" pageScale="1" pageWidth="1169" pageHeight="827" math="0" shadow="0">
      <root>
        <mxCell id="0" />
        <mxCell id="1" parent="0" />
        <mxCell id="BMYtUo04bEXOhZOYtdxO-18" style="edgeStyle=orthogonalEdgeStyle;rounded=0;orthogonalLoop=1;jettySize=auto;html=1;entryX=0;entryY=0.5;entryDx=0;entryDy=0;" edge="1" parent="1" source="mabzWAE0Z_ERkS2yRH2E-1" target="mabzWAE0Z_ERkS2yRH2E-2">
          <mxGeometry relative="1" as="geometry" />
        </mxCell>
        <mxCell id="mabzWAE0Z_ERkS2yRH2E-1" value="درخواست" style="shape=ext;rounded=1;html=1;whiteSpace=wrap;shadow=0;glass=0;labelBackgroundColor=none;fillColor=#fff2cc;strokeColor=#d6b656;fontStyle=1;fontSize=14;gradientColor=#ffd966;" vertex="1" parent="1">
          <mxGeometry x="141" y="470" width="120" height="80" as="geometry" />
        </mxCell>
        <mxCell id="BMYtUo04bEXOhZOYtdxO-2" style="edgeStyle=orthogonalEdgeStyle;rounded=0;orthogonalLoop=1;jettySize=auto;html=1;entryX=0;entryY=0.5;entryDx=0;entryDy=0;" edge="1" parent="1" source="mabzWAE0Z_ERkS2yRH2E-2" target="mabzWAE0Z_ERkS2yRH2E-3">
          <mxGeometry relative="1" as="geometry" />
        </mxCell>
        <mxCell id="mabzWAE0Z_ERkS2yRH2E-2" value="پیشنهاد" style="shape=ext;rounded=1;html=1;whiteSpace=wrap;labelBackgroundColor=none;fillColor=#fff2cc;strokeColor=#d6b656;fontStyle=1;fontSize=14;gradientColor=#ffd966;" vertex="1" parent="1">
          <mxGeometry x="291" y="470" width="120" height="80" as="geometry" />
        </mxCell>
        <mxCell id="Ocbo7LEtg_-cmUBT8O8z-8" style="edgeStyle=orthogonalEdgeStyle;rounded=0;orthogonalLoop=1;jettySize=auto;html=1;entryX=0;entryY=0.5;entryDx=0;entryDy=0;" edge="1" parent="1">
          <mxGeometry relative="1" as="geometry">
            <mxPoint x="560" y="510.0588235294117" as="sourcePoint" />
            <mxPoint x="590" y="510" as="targetPoint" />
          </mxGeometry>
        </mxCell>
        <mxCell id="mabzWAE0Z_ERkS2yRH2E-3" value="مصوبه" style="shape=ext;rounded=1;html=1;whiteSpace=wrap;labelBackgroundColor=none;fillColor=#fff2cc;strokeColor=#d6b656;fontStyle=1;fontSize=14;gradientColor=#ffd966;" vertex="1" parent="1">
          <mxGeometry x="441" y="470" width="120" height="80" as="geometry" />
        </mxCell>
        <mxCell id="Ocbo7LEtg_-cmUBT8O8z-5" style="edgeStyle=orthogonalEdgeStyle;rounded=0;orthogonalLoop=1;jettySize=auto;html=1;entryX=0;entryY=0.5;entryDx=0;entryDy=0;" edge="1" parent="1">
          <mxGeometry relative="1" as="geometry">
            <mxPoint x="710" y="510.0588235294117" as="sourcePoint" />
            <mxPoint x="740" y="510" as="targetPoint" />
          </mxGeometry>
        </mxCell>
        <mxCell id="mabzWAE0Z_ERkS2yRH2E-4" value="قرارداد" style="html=1;whiteSpace=wrap;rounded=1;labelBackgroundColor=none;fillColor=#fff2cc;strokeColor=#d6b656;fontStyle=1;fontSize=14;gradientColor=#ffd966;" vertex="1" parent="1">
          <mxGeometry x="591" y="470" width="120" height="80" as="geometry" />
        </mxCell>
        <mxCell id="qCRhQw4UtGm_JsraffaL-2" style="edgeStyle=orthogonalEdgeStyle;rounded=0;orthogonalLoop=1;jettySize=auto;html=1;entryX=0;entryY=0.5;entryDx=0;entryDy=0;" edge="1" parent="1" source="qCRhQw4UtGm_JsraffaL-1">
          <mxGeometry relative="1" as="geometry">
            <mxPoint x="140" y="510" as="targetPoint" />
          </mxGeometry>
        </mxCell>
        <mxCell id="qCRhQw4UtGm_JsraffaL-1" value="&lt;font style=&quot;font-size: 14px;&quot;&gt;&lt;b&gt;شروع&lt;/b&gt;&lt;/font&gt;" style="shape=mxgraph.bpmn.shape;html=1;verticalLabelPosition=bottom;labelBackgroundColor=none;verticalAlign=top;perimeter=ellipsePerimeter;outline=standard;symbol=general;fillColor=#FAE5C7;strokeColor=#0F8B8D;fontColor=#143642;" vertex="1" parent="1">
          <mxGeometry x="40" y="485" width="49" height="50" as="geometry" />
        </mxCell>
        <mxCell id="Ocbo7LEtg_-cmUBT8O8z-1" value="پایان" style="shape=mxgraph.bpmn.shape;html=1;verticalLabelPosition=bottom;labelBackgroundColor=none;verticalAlign=top;perimeter=ellipsePerimeter;outline=end;symbol=general;fillColor=#FAE5C7;strokeColor=#0F8B8D;fontColor=#143642;fontStyle=1;fontSize=14;" vertex="1" parent="1">
          <mxGeometry x="1040" y="485" width="49" height="50" as="geometry" />
        </mxCell>
        <mxCell id="Ocbo7LEtg_-cmUBT8O8z-10" style="edgeStyle=orthogonalEdgeStyle;rounded=0;orthogonalLoop=1;jettySize=auto;html=1;entryX=0;entryY=0.5;entryDx=0;entryDy=0;" edge="1" parent="1">
          <mxGeometry relative="1" as="geometry">
            <mxPoint x="860" y="510.0588235294117" as="sourcePoint" />
            <mxPoint x="890" y="510" as="targetPoint" />
          </mxGeometry>
        </mxCell>
        <mxCell id="Ocbo7LEtg_-cmUBT8O8z-3" value="بازپرداخت" style="shape=ext;rounded=1;html=1;whiteSpace=wrap;labelBackgroundColor=none;fillColor=#fff2cc;strokeColor=#d6b656;fontStyle=1;fontSize=14;gradientColor=#ffd966;" vertex="1" parent="1">
          <mxGeometry x="741" y="470" width="120" height="80" as="geometry" />
        </mxCell>
        <mxCell id="Ocbo7LEtg_-cmUBT8O8z-11" style="edgeStyle=orthogonalEdgeStyle;rounded=0;orthogonalLoop=1;jettySize=auto;html=1;entryX=0;entryY=0.5;entryDx=0;entryDy=0;" edge="1" parent="1" target="Ocbo7LEtg_-cmUBT8O8z-1">
          <mxGeometry relative="1" as="geometry">
            <mxPoint x="1010" y="510.0588235294117" as="sourcePoint" />
          </mxGeometry>
        </mxCell>
        <mxCell id="Ocbo7LEtg_-cmUBT8O8z-9" value="تسویه" style="shape=ext;rounded=1;html=1;whiteSpace=wrap;labelBackgroundColor=none;fillColor=#fff2cc;strokeColor=#d6b656;fontStyle=1;fontSize=14;gradientColor=#ffd966;" vertex="1" parent="1">
          <mxGeometry x="891" y="470" width="120" height="80" as="geometry" />
        </mxCell>
        <mxCell id="52vum9JTEeHEv7hO826W-1" value="ماژول بیمه" style="shape=ext;rounded=1;shadow=1;glass=0;labelBackgroundColor=none;fillColor=#d5e8d4;strokeColor=#82b366;fontStyle=1;fontFamily=Roboto;fontSize=12;double=1;labelBorderColor=none;textShadow=0;whiteSpace=wrap;html=1;fontSource=https://fonts.googleapis.com/css?family=Roboto;gradientColor=#97d077;" vertex="1" parent="1">
          <mxGeometry x="600" y="330" width="90" height="50" as="geometry" />
        </mxCell>
        <mxCell id="52vum9JTEeHEv7hO826W-2" value="ماژول استعلامات" style="shape=ext;rounded=1;html=1;whiteSpace=wrap;shadow=1;glass=0;labelBackgroundColor=none;fillColor=#d5e8d4;strokeColor=#82b366;fontStyle=1;fontFamily=Roboto;fontSize=12;double=1;fontSource=https://fonts.googleapis.com/css?family=Roboto;gradientColor=#97d077;" vertex="1" parent="1">
          <mxGeometry x="600" y="210" width="90" height="50" as="geometry" />
        </mxCell>
        <mxCell id="52vum9JTEeHEv7hO826W-3" value="ماژول وثایق" style="shape=ext;rounded=1;html=1;whiteSpace=wrap;shadow=1;glass=0;labelBackgroundColor=none;fillColor=#d5e8d4;strokeColor=#82b366;fontStyle=1;fontFamily=Roboto;fontSize=12;double=1;fontSource=https://fonts.googleapis.com/css?family=Roboto;gradientColor=#97d077;" vertex="1" parent="1">
          <mxGeometry x="456" y="390" width="90" height="50" as="geometry" />
        </mxCell>
        <mxCell id="52vum9JTEeHEv7hO826W-4" value="ماژول سود/کارمزد/جریمه/هزینه های قانونی" style="shape=ext;rounded=1;html=1;whiteSpace=wrap;shadow=1;glass=0;labelBackgroundColor=none;fillColor=#d5e8d4;strokeColor=#82b366;fontStyle=1;fontFamily=Roboto;fontSize=12;double=1;fontSource=https://fonts.googleapis.com/css?family=Roboto;gradientColor=#97d077;" vertex="1" parent="1">
          <mxGeometry x="306" y="270" width="90" height="50" as="geometry" />
        </mxCell>
        <mxCell id="52vum9JTEeHEv7hO826W-5" value="ماژول اسناد و&amp;nbsp;مستندات" style="shape=ext;rounded=1;html=1;whiteSpace=wrap;shadow=1;glass=0;labelBackgroundColor=none;fillColor=#d5e8d4;strokeColor=#82b366;fontStyle=1;fontFamily=Roboto;fontSize=12;double=1;fontSource=https://fonts.googleapis.com/css?family=Roboto;gradientColor=#97d077;" vertex="1" parent="1">
          <mxGeometry x="456" y="270" width="90" height="50" as="geometry" />
        </mxCell>
        <mxCell id="52vum9JTEeHEv7hO826W-6" value="ماژول&lt;span style=&quot;background-color: transparent; color: light-dark(rgb(0, 0, 0), rgb(255, 255, 255));&quot;&gt;&amp;nbsp;تصمیم گیری&lt;/span&gt;" style="shape=ext;rounded=1;html=1;whiteSpace=wrap;shadow=1;glass=0;labelBackgroundColor=none;fillColor=#d5e8d4;strokeColor=#82b366;fontStyle=1;fontFamily=Roboto;fontSize=12;gradientColor=#97d077;double=1;fontSource=https://fonts.googleapis.com/css?family=Roboto;" vertex="1" parent="1">
          <mxGeometry x="456" y="330" width="90" height="50" as="geometry" />
        </mxCell>
        <mxCell id="52vum9JTEeHEv7hO826W-7" value="ماژول ارتباطات و اطلاع‌رسانی" style="shape=ext;rounded=1;html=1;whiteSpace=wrap;shadow=1;glass=0;labelBackgroundColor=none;fillColor=#d5e8d4;strokeColor=#82b366;fontStyle=1;fontFamily=Roboto;fontSize=12;double=1;fontSource=https://fonts.googleapis.com/css?family=Roboto;gradientColor=#97d077;" vertex="1" parent="1">
          <mxGeometry x="456" y="210" width="90" height="50" as="geometry" />
        </mxCell>
        <mxCell id="MQ_wy6y59w4q_gl21sXy-1" value="ماژول گزارش‌گیری و تحلیل داده‌ها" style="shape=ext;rounded=1;html=1;whiteSpace=wrap;shadow=1;glass=0;labelBackgroundColor=none;fillColor=#d5e8d4;strokeColor=#82b366;fontStyle=1;fontFamily=Roboto;fontSize=12;double=1;fontSource=https://fonts.googleapis.com/css?family=Roboto;gradientColor=#97d077;" vertex="1" parent="1">
          <mxGeometry x="600" y="270" width="90" height="50" as="geometry" />
        </mxCell>
        <mxCell id="BMYtUo04bEXOhZOYtdxO-3" value="ماژول&amp;nbsp;ضامنین" style="shape=ext;rounded=1;html=1;whiteSpace=wrap;shadow=1;glass=0;labelBackgroundColor=none;fillColor=#d5e8d4;strokeColor=#82b366;fontStyle=1;fontFamily=Roboto;fontSize=12;double=1;fontSource=https://fonts.googleapis.com/css?family=Roboto;gradientColor=#97d077;" vertex="1" parent="1">
          <mxGeometry x="600" y="390" width="90" height="50" as="geometry" />
        </mxCell>
        <mxCell id="BMYtUo04bEXOhZOYtdxO-4" value="ماژول&amp;nbsp;حد و سقف" style="shape=ext;rounded=1;html=1;whiteSpace=wrap;shadow=1;glass=0;labelBackgroundColor=none;fillColor=#d5e8d4;strokeColor=#82b366;fontStyle=1;fontFamily=Roboto;fontSize=12;double=1;fontSource=https://fonts.googleapis.com/css?family=Roboto;gradientColor=#97d077;" vertex="1" parent="1">
          <mxGeometry x="306" y="330" width="90" height="50" as="geometry" />
        </mxCell>
        <mxCell id="BMYtUo04bEXOhZOYtdxO-5" value="ماژول&amp;nbsp;تمدید و متمم" style="shape=ext;rounded=1;html=1;whiteSpace=wrap;shadow=1;glass=0;labelBackgroundColor=none;fillColor=#d5e8d4;strokeColor=#82b366;fontStyle=1;fontFamily=Roboto;fontSize=12;double=1;fontSource=https://fonts.googleapis.com/css?family=Roboto;gradientColor=#97d077;" vertex="1" parent="1">
          <mxGeometry x="600" y="150" width="90" height="50" as="geometry" />
        </mxCell>
        <mxCell id="BMYtUo04bEXOhZOYtdxO-6" value="ماژول&amp;nbsp;پیگیری مطالبات" style="shape=ext;rounded=1;html=1;whiteSpace=wrap;shadow=1;glass=0;labelBackgroundColor=none;fillColor=#d5e8d4;strokeColor=#82b366;fontStyle=1;fontFamily=Roboto;fontSize=12;double=1;fontSource=https://fonts.googleapis.com/css?family=Roboto;gradientColor=#97d077;" vertex="1" parent="1">
          <mxGeometry x="751" y="390" width="90" height="50" as="geometry" />
        </mxCell>
        <mxCell id="BMYtUo04bEXOhZOYtdxO-7" value="ماژول استعلامات" style="shape=ext;rounded=1;html=1;whiteSpace=wrap;shadow=1;glass=0;labelBackgroundColor=none;fillColor=#d5e8d4;strokeColor=#82b366;fontStyle=1;fontFamily=Roboto;fontSize=12;double=1;fontSource=https://fonts.googleapis.com/css?family=Roboto;gradientColor=#97d077;" vertex="1" parent="1">
          <mxGeometry x="156" y="270" width="90" height="50" as="geometry" />
        </mxCell>
        <mxCell id="BMYtUo04bEXOhZOYtdxO-8" value="ماژول اسناد و&amp;nbsp;مستندات" style="shape=ext;rounded=1;html=1;whiteSpace=wrap;shadow=1;glass=0;labelBackgroundColor=none;fillColor=#d5e8d4;strokeColor=#82b366;fontStyle=1;fontFamily=Roboto;fontSize=12;double=1;fontSource=https://fonts.googleapis.com/css?family=Roboto;gradientColor=#97d077;" vertex="1" parent="1">
          <mxGeometry x="156" y="210" width="90" height="50" as="geometry" />
        </mxCell>
        <mxCell id="BMYtUo04bEXOhZOYtdxO-13" value="ماژول ارتباطات و اطلاع‌رسانی" style="shape=ext;rounded=1;html=1;whiteSpace=wrap;shadow=1;glass=0;labelBackgroundColor=none;fillColor=#d5e8d4;strokeColor=#82b366;fontStyle=1;fontFamily=Roboto;fontSize=12;double=1;fontSource=https://fonts.googleapis.com/css?family=Roboto;gradientColor=#97d077;" vertex="1" parent="1">
          <mxGeometry x="156" y="330" width="90" height="50" as="geometry" />
        </mxCell>
        <mxCell id="BMYtUo04bEXOhZOYtdxO-15" value="ماژول گزارش‌گیری و تحلیل داده‌ها" style="shape=ext;rounded=1;html=1;whiteSpace=wrap;shadow=1;glass=0;labelBackgroundColor=none;fillColor=#d5e8d4;strokeColor=#82b366;fontStyle=1;fontFamily=Roboto;fontSize=12;double=1;fontSource=https://fonts.googleapis.com/css?family=Roboto;gradientColor=#97d077;" vertex="1" parent="1">
          <mxGeometry x="156" y="390" width="90" height="50" as="geometry" />
        </mxCell>
        <mxCell id="BMYtUo04bEXOhZOYtdxO-19" value="ماژول گزارش‌گیری و تحلیل داده‌ها" style="shape=ext;rounded=1;html=1;whiteSpace=wrap;shadow=1;glass=0;labelBackgroundColor=none;fillColor=#d5e8d4;strokeColor=#82b366;fontStyle=1;fontFamily=Roboto;fontSize=12;double=1;fontSource=https://fonts.googleapis.com/css?family=Roboto;gradientColor=#97d077;" vertex="1" parent="1">
          <mxGeometry x="306" y="390" width="90" height="50" as="geometry" />
        </mxCell>
        <mxCell id="BMYtUo04bEXOhZOYtdxO-20" value="ماژول ارتباطات و اطلاع‌رسانی" style="shape=ext;rounded=1;html=1;whiteSpace=wrap;shadow=1;glass=0;labelBackgroundColor=none;fillColor=#d5e8d4;strokeColor=#82b366;fontStyle=1;fontFamily=Roboto;fontSize=12;double=1;fontSource=https://fonts.googleapis.com/css?family=Roboto;gradientColor=#97d077;" vertex="1" parent="1">
          <mxGeometry x="600" y="90" width="90" height="50" as="geometry" />
        </mxCell>
        <mxCell id="BMYtUo04bEXOhZOYtdxO-21" value="ماژول اعتبارسنجی و بررسی ریسک" style="shape=ext;rounded=1;html=1;whiteSpace=wrap;shadow=1;glass=0;labelBackgroundColor=none;fillColor=#d5e8d4;strokeColor=#82b366;fontStyle=1;fontFamily=Roboto;fontSize=12;double=1;fontSource=https://fonts.googleapis.com/css?family=Roboto;gradientColor=#97d077;" vertex="1" parent="1">
          <mxGeometry x="306" y="210" width="90" height="50" as="geometry" />
        </mxCell>
      </root>
    </mxGraphModel>
  </diagram>
</mxfile>
